<svg xmlns="http://www.w3.org/2000/svg" viewBox="0 0 1800 900">
  <!-- Grid lines -->
  <g stroke="rgba(56,189,248,0.02)" stroke-width="0.5" fill="none">
    <line x1="0" y1="150" x2="1800" y2="150"/>
    <line x1="0" y1="300" x2="1800" y2="300"/>
    <line x1="0" y1="450" x2="1800" y2="450"/>
    <line x1="0" y1="600" x2="1800" y2="600"/>
    <line x1="0" y1="750" x2="1800" y2="750"/>
    <line x1="225" y1="0" x2="225" y2="900"/>
    <line x1="450" y1="0" x2="450" y2="900"/>
    <line x1="675" y1="0" x2="675" y2="900"/>
    <line x1="900" y1="0" x2="900" y2="900"/>
    <line x1="1125" y1="0" x2="1125" y2="900"/>
    <line x1="1350" y1="0" x2="1350" y2="900"/>
    <line x1="1575" y1="0" x2="1575" y2="900"/>
  </g>

  <!-- Continents - detailed outlines, NO fill, clean strokes -->
  <g fill="rgba(56,189,248,0.025)" stroke="rgba(56,189,248,0.09)" stroke-width="1.2" stroke-linejoin="round" stroke-linecap="round">

    <!-- NORTH AMERICA -->
    <path d="
      M148,88 L156,78 L168,72 L182,68 L198,62 L218,56 L240,52 L258,50 L272,48
      L290,52 L308,48 L325,44 L340,42 L358,46 L372,44 L388,48 L402,52 L415,48
      L430,46 L448,52 L460,58 L468,66 L472,76 L478,84 L486,78 L496,82 L502,90
      L498,100 L490,108 L484,118 L478,126 L470,132 L462,140 L454,146 L448,156
      L444,164 L438,172 L430,180 L422,190 L416,200 L408,212 L402,222 L396,232
      L390,240 L384,248 L378,258 L372,266 L364,274 L358,280 L352,286 L344,290
      L336,298 L330,304 L326,312 L320,318 L316,326 L312,332 L308,338 L302,342
      L294,340 L288,336 L284,332 L280,326 L278,320 L280,312 L276,306 L270,302
      L264,298 L258,296 L252,300 L244,302 L238,298 L236,290 L238,282 L242,274
      L248,266 L252,258 L250,248 L246,240 L240,232 L236,224 L232,216 L228,206
      L226,196 L224,186 L222,178 L218,168 L212,160 L206,152 L200,144 L194,138
      L186,132 L178,126 L170,122 L162,116 L156,108 L150,100 L148,92 Z
    "/>

    <!-- Alaska -->
    <path d="
      M80,82 L92,76 L106,72 L118,70 L130,72 L142,78 L148,86
      L142,92 L134,96 L122,98 L110,96 L98,92 L88,88 Z
    "/>

    <!-- GREENLAND -->
    <path d="
      M358,18 L372,14 L390,12 L408,14 L424,18 L438,24 L448,32
      L454,42 L452,54 L446,64 L436,72 L424,78 L412,80
      L398,78 L386,74 L374,68 L366,60 L360,50 L356,40 L354,28 Z
    "/>

    <!-- MEXICO + CENTRAL AMERICA -->
    <path d="
      M204,302 L212,308 L220,316 L228,324 L236,330 L244,334
      L252,340 L256,348 L260,356 L262,364 L266,372 L270,378
      L272,386 L270,394 L266,400 L260,404 L254,408 L248,412
      L242,416 L238,422 L234,428 L230,434 L226,438 L220,442
      L214,440 L210,434 L208,426 L210,418 L212,410 L210,402
      L206,396 L200,392 L196,386 L194,378 L196,370 L200,362
      L204,354 L202,346 L198,338 L194,330 L192,322 L196,314 L200,306 Z
    "/>

    <!-- CUBA -->
    <path d="
      M252,342 L264,338 L278,336 L292,338 L304,342
      L296,348 L284,350 L272,350 L260,348 L252,344 Z
    "/>

    <!-- SOUTH AMERICA -->
    <path d="
      M280,418 L292,412 L306,408 L320,410 L334,414 L346,420
      L356,428 L364,438 L370,450 L374,462 L378,476 L380,490
      L382,506 L384,520 L386,536 L386,552 L384,568 L380,584
      L376,598 L370,614 L364,628 L358,642 L350,656 L342,668
      L334,680 L326,692 L318,704 L312,714 L306,724 L302,734
      L298,744 L296,752 L292,758 L288,762 L282,760 L278,754
      L276,744 L274,734 L272,722 L268,710 L264,698 L260,686
      L258,674 L256,660 L258,646 L260,632 L264,618 L268,604
      L270,590 L272,576 L272,562 L270,548 L268,534 L266,520
      L264,506 L264,492 L266,478 L268,464 L270,452 L272,440
      L276,430 Z
    "/>

    <!-- EUROPE (mainland) -->
    <path d="
      M538,56 L550,52 L564,48 L578,50 L590,54 L602,52
      L614,56 L626,60 L636,66 L644,74 L650,82 L654,92
      L656,102 L654,112 L650,120 L644,128 L636,136 L628,142
      L620,148 L614,156 L608,164 L602,172 L596,180 L590,186
      L582,192 L574,196 L566,200 L558,202 L548,200 L540,196
      L532,190 L526,182 L520,174 L516,166 L512,156 L510,146
      L508,136 L510,126 L514,116 L518,106 L522,96 L526,86
      L530,76 L534,66 Z
    "/>

    <!-- ITALY -->
    <path d="
      M582,164 L588,170 L592,180 L594,190 L596,202
      L592,212 L586,218 L580,214 L578,204 L576,194
      L578,184 L580,174 Z
    "/>

    <!-- SCANDINAVIAN PENINSULA -->
    <path d="
      M572,14 L580,10 L592,8 L604,12 L612,20 L618,30
      L620,42 L618,54 L612,64 L604,72 L594,76 L584,74
      L576,68 L570,60 L566,50 L564,40 L566,28 L568,20 Z
    "/>

    <!-- BRITISH ISLES -->
    <path d="
      M502,80 L510,74 L520,72 L528,76 L530,86
      L526,94 L518,100 L508,102 L500,98 L498,88 Z
    "/>
    <path d="
      M492,86 L500,82 L504,88 L502,96 L496,100 L490,96 L488,90 Z
    "/>

    <!-- ICELAND -->
    <path d="
      M448,38 L458,34 L470,36 L478,42 L476,52
      L468,58 L456,58 L448,52 L446,44 Z
    "/>

    <!-- AFRICA -->
    <path d="
      M548,210 L560,206 L574,204 L588,208 L600,214
      L614,220 L626,228 L636,238 L644,250 L648,262
      L652,276 L654,290 L656,306 L656,322 L654,338
      L652,354 L648,370 L644,386 L638,402 L632,416
      L624,432 L616,446 L608,458 L598,470 L588,480
      L578,488 L570,496 L562,500 L554,498 L548,492
      L542,484 L538,474 L534,462 L530,448 L528,434
      L528,418 L530,402 L532,386 L534,370 L534,354
      L532,338 L530,322 L528,306 L528,290 L530,274
      L534,258 L538,242 L542,228 L546,218 Z
    "/>

    <!-- MADAGASCAR -->
    <path d="
      M668,432 L676,426 L682,432 L684,444 L682,458
      L678,470 L672,476 L666,472 L664,460 L664,446 Z
    "/>

    <!-- ARABIAN PENINSULA -->
    <path d="
      M636,200 L650,194 L664,192 L678,198 L688,208
      L694,220 L696,234 L692,246 L684,256 L674,262
      L662,264 L650,260 L640,252 L634,242 L632,230
      L632,218 L634,208 Z
    "/>

    <!-- RUSSIA / NORTHERN ASIA -->
    <path d="
      M656,20 L680,16 L710,12 L744,10 L778,8 L812,10
      L848,8 L884,10 L918,8 L952,10 L986,8 L1020,10
      L1050,14 L1074,18 L1092,24 L1104,32 L1110,44
      L1108,56 L1100,66 L1088,74 L1072,80 L1052,84
      L1028,88 L1004,90 L978,92 L952,90 L926,88
      L900,90 L874,92 L848,90 L822,88 L796,90
      L770,92 L748,96 L728,100 L712,104 L700,108
      L690,104 L682,96 L676,86 L672,74 L668,62
      L664,50 L658,38 L656,26 Z
    "/>

    <!-- INDIA -->
    <path d="
      M712,198 L726,192 L740,194 L752,200 L762,210
      L770,222 L774,236 L776,252 L774,268 L770,282
      L764,296 L756,308 L746,318 L738,326 L730,330
      L724,328 L720,320 L716,308 L714,296 L712,282
      L710,268 L710,254 L710,240 L710,226 L710,212 Z
    "/>

    <!-- SRI LANKA -->
    <path d="
      M742,336 L750,332 L754,340 L752,350 L746,356 L740,350 L740,342 Z
    "/>

    <!-- CHINA / EAST ASIA -->
    <path d="
      M798,82 L818,78 L840,76 L862,78 L884,80
      L906,84 L926,90 L944,98 L958,108 L968,120
      L974,134 L976,148 L974,162 L968,176 L958,188
      L946,198 L932,206 L916,212 L898,216 L880,218
      L862,218 L844,214 L828,208 L814,200 L802,190
      L794,178 L788,164 L786,150 L786,136 L788,122
      L792,108 L796,94 Z
    "/>

    <!-- KOREAN PENINSULA -->
    <path d="
      M982,128 L990,122 L998,128 L1000,140 L998,154
      L992,164 L984,168 L980,160 L978,148 L978,136 Z
    "/>

    <!-- JAPAN -->
    <path d="
      M1010,106 L1018,100 L1026,104 L1030,116 L1028,130
      L1024,144 L1018,156 L1012,164 L1006,160 L1004,148
      L1004,136 L1006,124 L1008,114 Z
    "/>
    <path d="
      M1000,168 L1008,164 L1014,170 L1012,182 L1006,190
      L998,188 L996,180 Z
    "/>
    <!-- Hokkaido -->
    <path d="
      M1016,90 L1024,86 L1032,92 L1030,102 L1022,106
      L1014,102 L1014,96 Z
    "/>

    <!-- SOUTHEAST ASIA (Indochina) -->
    <path d="
      M818,218 L832,216 L846,220 L856,228 L862,240
      L864,254 L862,268 L856,280 L848,290 L838,298
      L828,302 L820,298 L814,290 L810,280 L808,268
      L808,256 L810,244 L812,232 Z
    "/>

    <!-- MALAY PENINSULA -->
    <path d="
      M832,302 L838,306 L840,316 L840,328 L838,340
      L834,350 L828,356 L824,350 L822,340 L822,328
      L824,316 L828,308 Z
    "/>

    <!-- SUMATRA -->
    <path d="
      M818,352 L828,348 L838,354 L844,366 L846,380
      L842,392 L834,398 L826,394 L820,382 L816,370
      L814,360 Z
    "/>

    <!-- BORNEO -->
    <path d="
      M856,332 L868,326 L882,330 L892,340 L894,354
      L888,366 L878,372 L866,370 L856,362 L852,350
      L852,340 Z
    "/>

    <!-- JAVA -->
    <path d="
      M836,402 L852,398 L870,400 L888,404 L900,410
      L894,418 L880,420 L864,418 L848,414 L836,408 Z
    "/>

    <!-- SULAWESI -->
    <path d="
      M900,346 L908,340 L916,346 L918,358 L914,368
      L906,374 L898,368 L896,356 Z
    "/>

    <!-- PHILIPPINES -->
    <path d="
      M918,264 L926,258 L934,264 L936,278 L934,292
      L928,304 L920,308 L914,302 L912,288 L912,276 Z
    "/>
    <path d="
      M928,306 L936,302 L940,310 L938,322 L932,328
      L926,322 L926,312 Z
    "/>

    <!-- PAPUA NEW GUINEA -->
    <path d="
      M954,370 L970,364 L988,366 L1004,372 L1014,382
      L1010,394 L998,400 L984,398 L970,392 L958,384 Z
    "/>

    <!-- AUSTRALIA -->
    <path d="
      M918,430 L936,422 L956,418 L978,416 L1000,418
      L1022,422 L1042,430 L1058,440 L1070,454 L1078,470
      L1082,488 L1082,508 L1078,526 L1072,542 L1062,556
      L1048,568 L1032,576 L1014,582 L996,584 L978,582
      L960,578 L944,570 L930,558 L920,544 L914,528
      L910,510 L910,492 L912,474 L914,458 L916,442 Z
    "/>

    <!-- TASMANIA -->
    <path d="
      M1020,594 L1032,590 L1040,598 L1038,610 L1030,616
      L1020,612 L1018,602 Z
    "/>

    <!-- NEW ZEALAND - North Island -->
    <path d="
      M1108,520 L1116,514 L1124,520 L1126,534 L1122,548
      L1114,558 L1106,554 L1104,542 L1104,530 Z
    "/>
    <!-- New Zealand - South Island -->
    <path d="
      M1100,560 L1110,556 L1118,564 L1118,580 L1112,594
      L1104,600 L1098,592 L1096,578 L1098,568 Z
    "/>

    <!-- TAIWAN -->
    <path d="
      M952,200 L960,196 L964,204 L962,216 L956,222 L950,216 L950,208 Z
    "/>

    <!-- INDONESIA - Smaller islands -->
    <!-- Celebes/Flores chain -->
    <path d="M908,398 L924,394 L940,398 L948,406 L944,414 L930,416 L916,412 L908,404 Z"/>
    <!-- Timor area -->
    <path d="M942,418 L958,414 L968,420 L964,428 L952,430 L942,424 Z"/>
  </g>

  <!-- Animated city dots -->
  <g fill="rgba(56,189,248,0.15)">
    <!-- São Paulo -->
    <circle cx="318" cy="660" r="2.5">
      <animate attributeName="opacity" values="0.15;0.45;0.15" dur="2.2s" repeatCount="indefinite"/>
    </circle>
    <!-- New York -->
    <circle cx="270" cy="240" r="2.5">
      <animate attributeName="opacity" values="0.15;0.4;0.15" dur="3s" repeatCount="indefinite"/>
    </circle>
    <!-- London -->
    <circle cx="515" cy="86" r="2.5">
      <animate attributeName="opacity" values="0.15;0.4;0.15" dur="3.5s" repeatCount="indefinite"/>
    </circle>
    <!-- Dubai -->
    <circle cx="680" cy="240" r="2.5">
      <animate attributeName="opacity" values="0.15;0.4;0.15" dur="2.8s" repeatCount="indefinite"/>
    </circle>
    <!-- Mumbai -->
    <circle cx="722" cy="280" r="2.5">
      <animate attributeName="opacity" values="0.15;0.4;0.15" dur="3.2s" repeatCount="indefinite"/>
    </circle>
    <!-- Shanghai -->
    <circle cx="942" cy="192" r="2.5">
      <animate attributeName="opacity" values="0.15;0.4;0.15" dur="2.6s" repeatCount="indefinite"/>
    </circle>
    <!-- Tokyo -->
    <circle cx="1016" cy="156" r="2.5">
      <animate attributeName="opacity" values="0.15;0.4;0.15" dur="3.8s" repeatCount="indefinite"/>
    </circle>
    <!-- Singapore -->
    <circle cx="836" cy="348" r="2">
      <animate attributeName="opacity" values="0.15;0.4;0.15" dur="3.3s" repeatCount="indefinite"/>
    </circle>
    <!-- Sydney -->
    <circle cx="1062" cy="530" r="2.5">
      <animate attributeName="opacity" values="0.15;0.4;0.15" dur="2.4s" repeatCount="indefinite"/>
    </circle>
    <!-- Lagos -->
    <circle cx="548" cy="374" r="2">
      <animate attributeName="opacity" values="0.15;0.4;0.15" dur="4s" repeatCount="indefinite"/>
    </circle>
    <!-- Los Angeles -->
    <circle cx="175" cy="270" r="2">
      <animate attributeName="opacity" values="0.15;0.4;0.15" dur="3.6s" repeatCount="indefinite"/>
    </circle>
    <!-- Miami -->
    <circle cx="262" cy="320" r="2">
      <animate attributeName="opacity" values="0.15;0.4;0.15" dur="2.9s" repeatCount="indefinite"/>
    </circle>
  </g>

  <!-- Route arcs (dashed) -->
  <g stroke="rgba(56,189,248,0.05)" fill="none" stroke-width="0.8" stroke-dasharray="5 3">
    <!-- SP → NY -->
    <path d="M318 660 Q280 450 270 240"/>
    <!-- NY → London -->
    <path d="M270 240 Q390 140 515 86"/>
    <!-- London → Dubai -->
    <path d="M515 86 Q600 140 680 240"/>
    <!-- Dubai → Mumbai -->
    <path d="M680 240 Q700 255 722 280"/>
    <!-- Mumbai → Singapore -->
    <path d="M722 280 Q780 310 836 348"/>
    <!-- Singapore → Shanghai -->
    <path d="M836 348 Q890 270 942 192"/>
    <!-- Shanghai → Tokyo -->
    <path d="M942 192 Q980 170 1016 156"/>
    <!-- SP → Lagos -->
    <path d="M318 660 Q430 520 548 374"/>
    <!-- Singapore → Sydney -->
    <path d="M836 348 Q950 440 1062 530"/>
  </g>
</svg>
